# WaveFront *.obj file (generated by Autodesk ATF)

mtllib 243a3a5d-28b3-40e0-9254-e1dd065bdee5.mtl

g Body1

v 0.065144 0.032600 0.000000
v 0.064722 0.037820 0.000000
v 0.063469 0.042906 0.000000
v 0.061416 0.047724 0.000000
v 0.058617 0.052150 0.000000
v 0.055144 0.056071 0.000000
v 0.051087 0.059383 0.000000
v 0.046551 0.062002 0.000000
v 0.041654 0.063859 0.000000
v 0.036523 0.064906 0.000000
v 0.031290 0.065117 0.000000
v 0.026090 0.064486 0.000000
v 0.021060 0.063029 0.000000
v 0.016328 0.060784 0.000000
v 0.012018 0.057809 0.000000
v 0.008241 0.054180 0.000000
v 0.005094 0.049994 0.000000
v 0.002660 0.045356 0.000000
v 0.001002 0.040388 0.000000
v 0.000162 0.035219 0.000000
v 0.000162 0.029981 0.000000
v 0.001002 0.024812 0.000000
v 0.002660 0.019844 0.000000
v 0.005094 0.015206 0.000000
v 0.008241 0.011020 0.000000
v 0.012018 0.007391 0.000000
v 0.016328 0.004416 0.000000
v 0.021060 0.002171 0.000000
v 0.026090 0.000714 0.000000
v 0.031290 0.000083 0.000000
v 0.036523 0.000294 0.000000
v 0.041654 0.001341 0.000000
v 0.046551 0.003198 0.000000
v 0.051087 0.005817 0.000000
v 0.055144 0.009129 0.000000
v 0.058617 0.013050 0.000000
v 0.061416 0.017476 0.000000
v 0.063469 0.022294 0.000000
v 0.064722 0.027380 0.000000
v 0.065144 0.032600 0.055563
v 0.064722 0.027380 0.055563
v 0.063469 0.022294 0.055563
v 0.061416 0.017476 0.055563
v 0.058617 0.013050 0.055563
v 0.055144 0.009129 0.055563
v 0.051087 0.005817 0.055563
v 0.046551 0.003198 0.055563
v 0.041654 0.001341 0.055563
v 0.036523 0.000294 0.055563
v 0.031290 0.000083 0.055563
v 0.026090 0.000714 0.055563
v 0.021060 0.002171 0.055563
v 0.016328 0.004416 0.055563
v 0.012018 0.007391 0.055563
v 0.008241 0.011020 0.055563
v 0.005094 0.015206 0.055563
v 0.002660 0.019844 0.055563
v 0.001002 0.024812 0.055563
v 0.000162 0.029981 0.055563
v 0.000162 0.035219 0.055563
v 0.001002 0.040388 0.055563
v 0.002660 0.045356 0.055563
v 0.005094 0.049994 0.055563
v 0.008241 0.054180 0.055563
v 0.012018 0.057809 0.055563
v 0.016328 0.060784 0.055563
v 0.021060 0.063029 0.055563
v 0.026090 0.064486 0.055563
v 0.031290 0.065117 0.055563
v 0.036523 0.064906 0.055563
v 0.041654 0.063859 0.055563
v 0.046551 0.062002 0.055563
v 0.051087 0.059383 0.055563
v 0.055144 0.056071 0.055563
v 0.058617 0.052150 0.055563
v 0.061416 0.047724 0.055563
v 0.063469 0.042906 0.055563
v 0.064722 0.037820 0.055563
vt 2.778125 0.524304 0.000000
vt -2.778125 0.000000 0.000000
vt 2.778125 0.000000 0.000000
vt -2.778125 -0.524304 0.000000
vt 2.778125 -0.524304 0.000000
vt -2.778125 -1.048607 0.000000
vt 2.778125 -1.048607 0.000000
vt -2.778125 -1.572911 0.000000
vt 2.778125 -1.572911 0.000000
vt -2.778125 -2.097214 0.000000
vt 2.778125 -2.097214 0.000000
vt -2.778125 -2.621518 0.000000
vt 2.778125 -2.621518 0.000000
vt -2.778125 -3.145822 0.000000
vt 2.778125 -3.145822 0.000000
vt -2.778125 -3.670125 0.000000
vt 2.778125 -3.670125 0.000000
vt -2.778125 -4.194429 0.000000
vt 2.778125 -4.194429 0.000000
vt -2.778125 -4.718733 0.000000
vt 2.778125 -4.718733 0.000000
vt -2.778125 -5.243036 0.000000
vt 2.778125 -5.243036 0.000000
vt -2.778125 -5.767340 0.000000
vt 2.778125 -5.767340 0.000000
vt -2.778125 -6.291643 0.000000
vt 2.778125 -6.291643 0.000000
vt -2.778125 -6.815947 0.000000
vt 2.778125 -6.815947 0.000000
vt -2.778125 -7.340251 0.000000
vt 2.778125 -7.340251 0.000000
vt -2.778125 -7.864554 0.000000
vt 2.778125 -7.864554 0.000000
vt -2.778125 -8.388858 0.000000
vt 2.778125 -8.388858 0.000000
vt -2.778125 -8.913162 0.000000
vt 2.778125 -8.913162 0.000000
vt -2.778125 -9.437465 0.000000
vt 2.778125 -9.437465 0.000000
vt -2.778125 -9.961769 0.000000
vt 2.778125 -9.961769 0.000000
vt 2.778125 10.486072 0.000000
vt -2.778125 10.486072 0.000000
vt -2.778125 9.961769 0.000000
vt 2.778125 9.961769 0.000000
vt -2.778125 9.437465 0.000000
vt 2.778125 9.437465 0.000000
vt -2.778125 8.913162 0.000000
vt 2.778125 8.913162 0.000000
vt -2.778125 8.388858 0.000000
vt 2.778125 8.388858 0.000000
vt -2.778125 7.864554 0.000000
vt 2.778125 7.864554 0.000000
vt -2.778125 7.340251 0.000000
vt 2.778125 7.340251 0.000000
vt -2.778125 6.815947 0.000000
vt 2.778125 6.815947 0.000000
vt -2.778125 6.291643 0.000000
vt 2.778125 6.291643 0.000000
vt -2.778125 5.767340 0.000000
vt 2.778125 5.767340 0.000000
vt -2.778125 5.243036 0.000000
vt 2.778125 5.243036 0.000000
vt -2.778125 4.718733 0.000000
vt 2.778125 4.718733 0.000000
vt -2.778125 4.194429 0.000000
vt 2.778125 4.194429 0.000000
vt -2.778125 3.670125 0.000000
vt 2.778125 3.670125 0.000000
vt -2.778125 3.145822 0.000000
vt 2.778125 3.145822 0.000000
vt -2.778125 2.621518 0.000000
vt 2.778125 2.621518 0.000000
vt -2.778125 2.097214 0.000000
vt 2.778125 2.097214 0.000000
vt -2.778125 1.572911 0.000000
vt 2.778125 1.572911 0.000000
vt -2.778125 1.048607 0.000000
vt 2.778125 1.048607 0.000000
vt -2.778125 0.524304 0.000000
vt -3.254375 0.000000 0.000000
vt -3.212232 -0.522038 0.000000
vt -3.212232 0.522038 0.000000
vt -3.086893 1.030556 0.000000
vt -3.086893 -1.030556 0.000000
vt -2.881606 1.512383 0.000000
vt -2.881606 -1.512383 0.000000
vt -2.601687 1.955041 0.000000
vt -2.254385 2.347063 0.000000
vt -1.848696 2.678298 0.000000
vt -1.395126 2.940167 0.000000
vt -0.905424 3.125886 0.000000
vt -0.392272 3.230647 0.000000
vt 0.131040 3.251736 0.000000
vt 0.650959 3.188606 0.000000
vt 1.154017 3.042893 0.000000
vt 1.627188 2.818371 0.000000
vt -2.601687 -1.955041 0.000000
vt 2.058214 2.520855 0.000000
vt 2.435935 2.158050 0.000000
vt 2.750565 1.739352 0.000000
vt 2.993958 1.275606 0.000000
vt 3.159809 0.778823 0.000000
vt 3.243822 0.261868 0.000000
vt 3.243822 -0.261868 0.000000
vt 3.159809 -0.778823 0.000000
vt 2.993958 -1.275606 0.000000
vt 2.750565 -1.739352 0.000000
vt 2.435935 -2.158050 0.000000
vt -2.254385 -2.347063 0.000000
vt 2.058214 -2.520855 0.000000
vt -1.848696 -2.678298 0.000000
vt 1.627188 -2.818371 0.000000
vt -1.395126 -2.940167 0.000000
vt 1.154017 -3.042893 0.000000
vt -0.905424 -3.125886 0.000000
vt 0.650959 -3.188606 0.000000
vt -0.392272 -3.230647 0.000000
vt 0.131040 -3.251736 0.000000
vt 3.254375 0.000000 0.000000
vt 3.212232 0.522038 0.000000
vt 3.212232 -0.522038 0.000000
vt 3.086893 1.030556 0.000000
vt 3.086893 -1.030556 0.000000
vt 2.881606 1.512383 0.000000
vt 2.881606 -1.512383 0.000000
vt 2.601687 1.955041 0.000000
vt 2.254385 2.347063 0.000000
vt 1.848696 2.678298 0.000000
vt 1.395126 2.940167 0.000000
vt 0.905424 3.125886 0.000000
vt 0.392272 3.230647 0.000000
vt -0.131040 3.251736 0.000000
vt -0.650959 3.188606 0.000000
vt -1.154017 3.042893 0.000000
vt -1.627187 2.818371 0.000000
vt 2.601687 -1.955041 0.000000
vt -2.058214 2.520855 0.000000
vt -2.435935 2.158050 0.000000
vt -2.750565 1.739352 0.000000
vt -2.993958 1.275606 0.000000
vt -3.159809 0.778823 0.000000
vt -3.243822 0.261868 0.000000
vt -3.243822 -0.261868 0.000000
vt -3.159809 -0.778823 0.000000
vt -2.993958 -1.275606 0.000000
vt -2.750565 -1.739352 0.000000
vt -2.435935 -2.158050 0.000000
vt 2.254385 -2.347063 0.000000
vt -2.058214 -2.520855 0.000000
vt 1.848696 -2.678298 0.000000
vt -1.627187 -2.818371 0.000000
vt 1.395126 -2.940167 0.000000
vt -1.154017 -3.042893 0.000000
vt 0.905424 -3.125886 0.000000
vt -0.650959 -3.188606 0.000000
vt 0.392272 -3.230647 0.000000
vt -0.131040 -3.251736 0.000000
vn 98.705026 16.041128 0.000000
vn 100.000000 0.000000 0.000000
vn 100.000000 0.000000 0.000000
vn 98.705026 -16.041128 0.000000
vn 98.705026 -16.041128 0.000000
vn 94.853644 -31.666799 0.000000
vn 94.853644 -31.666799 0.000000
vn 88.545603 -46.472317 0.000000
vn 88.545603 -46.472317 0.000000
vn 79.944276 -60.074226 0.000000
vn 79.944276 -60.074226 0.000000
vn 69.272435 -72.120245 0.000000
vn 69.272435 -72.120245 0.000000
vn 56.806475 -82.298387 0.000000
vn 56.806475 -82.298387 0.000000
vn 42.869256 -90.345043 0.000000
vn 42.869256 -90.345043 0.000000
vn 27.821746 -96.051811 0.000000
vn 27.821746 -96.051811 0.000000
vn 12.053668 -99.270887 0.000000
vn 12.053668 -99.270887 0.000000
vn -4.026594 -99.918900 0.000000
vn -4.026594 -99.918900 0.000000
vn -20.002569 -97.979065 0.000000
vn -20.002569 -97.979065 0.000000
vn -35.460489 -93.501624 0.000000
vn -35.460489 -93.501624 0.000000
vn -50.000000 -86.602540 0.000000
vn -50.000000 -86.602540 0.000000
vn -63.244538 -77.460496 0.000000
vn -63.244538 -77.460496 0.000000
vn -74.851075 -66.312266 0.000000
vn -74.851075 -66.312266 0.000000
vn -84.519009 -53.446583 0.000000
vn -84.519009 -53.446583 0.000000
vn -91.997944 -39.196661 0.000000
vn -91.997944 -39.196661 0.000000
vn -97.094182 -23.931566 0.000000
vn -97.094182 -23.931566 0.000000
vn -99.675731 -8.046657 0.000000
vn -99.675731 -8.046657 0.000000
vn -99.675731 8.046657 -0.000000
vn -99.675731 8.046657 -0.000000
vn -97.094182 23.931566 -0.000000
vn -97.094182 23.931566 -0.000000
vn -91.997944 39.196661 -0.000000
vn -91.997944 39.196661 -0.000000
vn -84.519009 53.446583 -0.000000
vn -84.519009 53.446583 -0.000000
vn -74.851075 66.312266 -0.000000
vn -74.851075 66.312266 -0.000000
vn -63.244538 77.460496 -0.000000
vn -63.244538 77.460496 -0.000000
vn -50.000000 86.602540 -0.000000
vn -50.000000 86.602540 -0.000000
vn -35.460489 93.501624 -0.000000
vn -35.460489 93.501624 -0.000000
vn -20.002569 97.979065 -0.000000
vn -20.002569 97.979065 -0.000000
vn -4.026594 99.918900 -0.000000
vn -4.026594 99.918900 -0.000000
vn 12.053668 99.270887 0.000000
vn 12.053668 99.270887 0.000000
vn 27.821746 96.051811 0.000000
vn 27.821746 96.051811 0.000000
vn 42.869256 90.345043 0.000000
vn 42.869256 90.345043 0.000000
vn 56.806475 82.298387 0.000000
vn 56.806475 82.298387 0.000000
vn 69.272435 72.120245 0.000000
vn 69.272435 72.120245 0.000000
vn 79.944276 60.074226 0.000000
vn 79.944276 60.074226 0.000000
vn 88.545603 46.472317 0.000000
vn 88.545603 46.472317 0.000000
vn 94.853644 31.666799 0.000000
vn 94.853644 31.666799 0.000000
vn 98.705026 16.041128 0.000000
vn 0.000000 0.000000 -100.000000
vn 0.000000 0.000000 -100.000000
vn 0.000000 0.000000 -100.000000
vn 0.000000 0.000000 -100.000000
vn 0.000000 0.000000 -100.000000
vn 0.000000 0.000000 -100.000000
vn 0.000000 0.000000 -100.000000
vn 0.000000 0.000000 -100.000000
vn 0.000000 0.000000 -100.000000
vn 0.000000 0.000000 -100.000000
vn 0.000000 0.000000 -100.000000
vn 0.000000 0.000000 -100.000000
vn 0.000000 0.000000 -100.000000
vn 0.000000 0.000000 -100.000000
vn 0.000000 0.000000 -100.000000
vn 0.000000 0.000000 -100.000000
vn 0.000000 0.000000 -100.000000
vn 0.000000 0.000000 -100.000000
vn 0.000000 0.000000 -100.000000
vn 0.000000 0.000000 -100.000000
vn 0.000000 0.000000 -100.000000
vn 0.000000 0.000000 -100.000000
vn 0.000000 0.000000 -100.000000
vn 0.000000 0.000000 -100.000000
vn 0.000000 0.000000 -100.000000
vn 0.000000 0.000000 -100.000000
vn 0.000000 0.000000 -100.000000
vn 0.000000 0.000000 -100.000000
vn 0.000000 0.000000 -100.000000
vn 0.000000 0.000000 -100.000000
vn 0.000000 0.000000 -100.000000
vn 0.000000 0.000000 -100.000000
vn 0.000000 0.000000 -100.000000
vn 0.000000 0.000000 -100.000000
vn 0.000000 0.000000 -100.000000
vn 0.000000 0.000000 -100.000000
vn 0.000000 0.000000 -100.000000
vn 0.000000 0.000000 -100.000000
vn 0.000000 0.000000 -100.000000
vn 0.000000 0.000000 100.000000
vn 0.000000 0.000000 100.000000
vn 0.000000 0.000000 100.000000
vn 0.000000 0.000000 100.000000
vn 0.000000 0.000000 100.000000
vn 0.000000 0.000000 100.000000
vn 0.000000 0.000000 100.000000
vn 0.000000 0.000000 100.000000
vn 0.000000 0.000000 100.000000
vn 0.000000 0.000000 100.000000
vn 0.000000 0.000000 100.000000
vn 0.000000 0.000000 100.000000
vn 0.000000 0.000000 100.000000
vn 0.000000 0.000000 100.000000
vn 0.000000 0.000000 100.000000
vn 0.000000 0.000000 100.000000
vn 0.000000 0.000000 100.000000
vn 0.000000 0.000000 100.000000
vn 0.000000 0.000000 100.000000
vn 0.000000 0.000000 100.000000
vn 0.000000 0.000000 100.000000
vn 0.000000 0.000000 100.000000
vn 0.000000 0.000000 100.000000
vn 0.000000 0.000000 100.000000
vn 0.000000 0.000000 100.000000
vn 0.000000 0.000000 100.000000
vn 0.000000 0.000000 100.000000
vn 0.000000 0.000000 100.000000
vn 0.000000 0.000000 100.000000
vn 0.000000 0.000000 100.000000
vn 0.000000 0.000000 100.000000
vn 0.000000 0.000000 100.000000
vn 0.000000 0.000000 100.000000
vn 0.000000 0.000000 100.000000
vn 0.000000 0.000000 100.000000
vn 0.000000 0.000000 100.000000
vn 0.000000 0.000000 100.000000
vn 0.000000 0.000000 100.000000
vn 0.000000 0.000000 100.000000
usemtl Tough_2000_(with_Formlabs_SLA_3D_Printers)
f 2/1/1 40/2/2 1/3/3
f 1/3/3 40/2/2 41/4/4
f 1/3/3 41/4/4 39/5/5
f 39/5/5 41/4/4 42/6/6
f 39/5/5 42/6/6 38/7/7
f 38/7/7 42/6/6 43/8/8
f 38/7/7 43/8/8 37/9/9
f 37/9/9 43/8/8 44/10/10
f 37/9/9 44/10/10 36/11/11
f 36/11/11 44/10/10 45/12/12
f 36/11/11 45/12/12 35/13/13
f 35/13/13 45/12/12 46/14/14
f 35/13/13 46/14/14 34/15/15
f 34/15/15 46/14/14 47/16/16
f 34/15/15 47/16/16 33/17/17
f 33/17/17 47/16/16 48/18/18
f 33/17/17 48/18/18 32/19/19
f 32/19/19 48/18/18 49/20/20
f 32/19/19 49/20/20 31/21/21
f 31/21/21 49/20/20 50/22/22
f 31/21/21 50/22/22 30/23/23
f 30/23/23 50/22/22 51/24/24
f 30/23/23 51/24/24 29/25/25
f 29/25/25 51/24/24 52/26/26
f 29/25/25 52/26/26 28/27/27
f 28/27/27 52/26/26 53/28/28
f 28/27/27 53/28/28 27/29/29
f 27/29/29 53/28/28 54/30/30
f 27/29/29 54/30/30 26/31/31
f 26/31/31 54/30/30 55/32/32
f 26/31/31 55/32/32 25/33/33
f 25/33/33 55/32/32 56/34/34
f 25/33/33 56/34/34 24/35/35
f 24/35/35 56/34/34 57/36/36
f 24/35/35 57/36/36 23/37/37
f 23/37/37 57/36/36 58/38/38
f 23/37/37 58/38/38 22/39/39
f 22/39/39 58/38/38 59/40/40
f 22/39/39 59/40/40 21/41/41
f 21/42/41 59/43/40 60/44/42
f 21/42/41 60/44/42 20/45/43
f 20/45/43 60/44/42 61/46/44
f 20/45/43 61/46/44 19/47/45
f 19/47/45 61/46/44 62/48/46
f 19/47/45 62/48/46 18/49/47
f 18/49/47 62/48/46 63/50/48
f 18/49/47 63/50/48 17/51/49
f 17/51/49 63/50/48 64/52/50
f 17/51/49 64/52/50 16/53/51
f 16/53/51 64/52/50 65/54/52
f 16/53/51 65/54/52 15/55/53
f 15/55/53 65/54/52 66/56/54
f 15/55/53 66/56/54 14/57/55
f 14/57/55 66/56/54 67/58/56
f 14/57/55 67/58/56 13/59/57
f 13/59/57 67/58/56 68/60/58
f 13/59/57 68/60/58 12/61/59
f 12/61/59 68/60/58 69/62/60
f 12/61/59 69/62/60 11/63/61
f 11/63/61 69/62/60 70/64/62
f 11/63/61 70/64/62 10/65/63
f 10/65/63 70/64/62 71/66/64
f 10/65/63 71/66/64 9/67/65
f 9/67/65 71/66/64 72/68/66
f 9/67/65 72/68/66 8/69/67
f 8/69/67 72/68/66 73/70/68
f 8/69/67 73/70/68 7/71/69
f 7/71/69 73/70/68 74/72/70
f 7/71/69 74/72/70 6/73/71
f 6/73/71 74/72/70 75/74/72
f 6/73/71 75/74/72 5/75/73
f 5/75/73 75/74/72 76/76/74
f 5/75/73 76/76/74 4/77/75
f 4/77/75 76/76/74 77/78/76
f 4/77/75 77/78/76 3/79/77
f 3/79/77 77/78/76 78/80/78
f 3/79/77 78/80/78 2/1/1
f 2/1/1 78/80/78 40/2/2
f 1/81/79 39/82/80 2/83/81
f 2/83/81 39/82/80 3/84/82
f 3/84/82 39/82/80 38/85/83
f 3/84/82 38/85/83 4/86/84
f 4/86/84 38/85/83 37/87/85
f 4/86/84 37/87/85 5/88/86
f 5/88/86 37/87/85 6/89/87
f 6/89/87 37/87/85 7/90/88
f 7/90/88 37/87/85 8/91/89
f 8/91/89 37/87/85 9/92/90
f 9/92/90 37/87/85 10/93/91
f 10/93/91 37/87/85 11/94/92
f 11/94/92 37/87/85 12/95/93
f 12/95/93 37/87/85 13/96/94
f 13/96/94 37/87/85 14/97/95
f 14/97/95 37/87/85 36/98/96
f 14/97/95 36/98/96 15/99/97
f 15/99/97 36/98/96 16/100/98
f 16/100/98 36/98/96 17/101/99
f 17/101/99 36/98/96 18/102/100
f 18/102/100 36/98/96 19/103/101
f 19/103/101 36/98/96 20/104/102
f 20/104/102 36/98/96 21/105/103
f 21/105/103 36/98/96 22/106/104
f 22/106/104 36/98/96 23/107/105
f 23/107/105 36/98/96 24/108/106
f 24/108/106 36/98/96 25/109/107
f 25/109/107 36/98/96 35/110/108
f 25/109/107 35/110/108 26/111/109
f 26/111/109 35/110/108 34/112/110
f 26/111/109 34/112/110 27/113/111
f 27/113/111 34/112/110 33/114/112
f 27/113/111 33/114/112 28/115/113
f 28/115/113 33/114/112 32/116/114
f 28/115/113 32/116/114 29/117/115
f 29/117/115 32/116/114 31/118/116
f 29/117/115 31/118/116 30/119/117
f 40/120/118 78/121/119 41/122/120
f 41/122/120 78/121/119 77/123/121
f 41/122/120 77/123/121 42/124/122
f 42/124/122 77/123/121 76/125/123
f 42/124/122 76/125/123 43/126/124
f 43/126/124 76/125/123 75/127/125
f 43/126/124 75/127/125 74/128/126
f 74/128/126 73/129/127 43/126/124
f 43/126/124 73/129/127 72/130/128
f 43/126/124 72/130/128 71/131/129
f 71/131/129 70/132/130 43/126/124
f 43/126/124 70/132/130 69/133/131
f 43/126/124 69/133/131 68/134/132
f 68/134/132 67/135/133 43/126/124
f 43/126/124 67/135/133 66/136/134
f 43/126/124 66/136/134 44/137/135
f 44/137/135 66/136/134 65/138/136
f 44/137/135 65/138/136 64/139/137
f 64/139/137 63/140/138 44/137/135
f 44/137/135 63/140/138 62/141/139
f 44/137/135 62/141/139 61/142/140
f 61/142/140 60/143/141 44/137/135
f 44/137/135 60/143/141 59/144/142
f 44/137/135 59/144/142 58/145/143
f 58/145/143 57/146/144 44/137/135
f 44/137/135 57/146/144 56/147/145
f 44/137/135 56/147/145 55/148/146
f 44/137/135 55/148/146 45/149/147
f 45/149/147 55/148/146 54/150/148
f 45/149/147 54/150/148 46/151/149
f 46/151/149 54/150/148 53/152/150
f 46/151/149 53/152/150 47/153/151
f 47/153/151 53/152/150 52/154/152
f 47/153/151 52/154/152 48/155/153
f 48/155/153 52/154/152 51/156/154
f 48/155/153 51/156/154 49/157/155
f 49/157/155 51/156/154 50/158/156
# 78 vertices
# 158 texture params
# 156 normals
# 152 facets

# 1 groups
