# WaveFront *.obj file (generated by Autodesk ATF)

mtllib 287b962f-f767-46cc-a787-44d8f835a85c.mtl

g Body1

v 0.053988 0.027040 0.000000
v 0.053398 0.032651 0.000000
v 0.051654 0.038017 0.000000
v 0.048833 0.042903 0.000000
v 0.045058 0.047096 0.000000
v 0.040494 0.050412 0.000000
v 0.035340 0.052707 0.000000
v 0.029821 0.053880 0.000000
v 0.024179 0.053880 0.000000
v 0.018660 0.052707 0.000000
v 0.013506 0.050412 0.000000
v 0.008942 0.047096 0.000000
v 0.005167 0.042903 0.000000
v 0.002346 0.038017 0.000000
v 0.000602 0.032651 0.000000
v 0.000013 0.027040 0.000000
v 0.000602 0.021429 0.000000
v 0.002346 0.016063 0.000000
v 0.005167 0.011177 0.000000
v 0.008942 0.006984 0.000000
v 0.013506 0.003668 0.000000
v 0.018660 0.001373 0.000000
v 0.024179 0.000200 0.000000
v 0.029821 0.000200 0.000000
v 0.035340 0.001373 0.000000
v 0.040494 0.003668 0.000000
v 0.045058 0.006984 0.000000
v 0.048833 0.011177 0.000000
v 0.051654 0.016063 0.000000
v 0.053398 0.021429 0.000000
v 0.053988 0.027040 0.130175
v 0.053398 0.021429 0.130175
v 0.051654 0.016063 0.130175
v 0.048833 0.011177 0.130175
v 0.045058 0.006984 0.130175
v 0.040494 0.003668 0.130175
v 0.035340 0.001373 0.130175
v 0.029821 0.000200 0.130175
v 0.024179 0.000200 0.130175
v 0.018660 0.001373 0.130175
v 0.013506 0.003668 0.130175
v 0.008942 0.006984 0.130175
v 0.005167 0.011177 0.130175
v 0.002346 0.016063 0.130175
v 0.000602 0.021429 0.130175
v 0.000013 0.027040 0.130175
v 0.000602 0.032651 0.130175
v 0.002346 0.038017 0.130175
v 0.005167 0.042903 0.130175
v 0.008942 0.047096 0.130175
v 0.013506 0.050412 0.130175
v 0.018660 0.052707 0.130175
v 0.024179 0.053880 0.130175
v 0.029821 0.053880 0.130175
v 0.035340 0.052707 0.130175
v 0.040494 0.050412 0.130175
v 0.045058 0.047096 0.130175
v 0.048833 0.042903 0.130175
v 0.051654 0.038017 0.130175
v 0.053398 0.032651 0.130175
vt 6.508750 0.565225 0.000000
vt -6.508750 0.565225 0.000000
vt 6.508750 0.000000 0.000000
vt -6.508750 0.000000 0.000000
vt 6.508750 -0.565225 0.000000
vt -6.508750 -0.565225 0.000000
vt 6.508750 -1.130450 0.000000
vt -6.508750 -1.130450 0.000000
vt 6.508750 -1.695675 0.000000
vt -6.508750 -1.695675 0.000000
vt 6.508750 -2.260900 0.000000
vt -6.508750 -2.260900 0.000000
vt 6.508750 -2.826124 0.000000
vt -6.508750 -2.826124 0.000000
vt 6.508750 -3.391349 0.000000
vt -6.508750 -3.391349 0.000000
vt 6.508750 -3.956574 0.000000
vt -6.508750 -3.956574 0.000000
vt 6.508750 -4.521799 0.000000
vt -6.508750 -4.521799 0.000000
vt 6.508750 -5.087024 0.000000
vt -6.508750 -5.087024 0.000000
vt 6.508750 -5.652249 0.000000
vt -6.508750 -5.652249 0.000000
vt 6.508750 -6.217474 0.000000
vt -6.508750 -6.217474 0.000000
vt 6.508750 -6.782699 0.000000
vt -6.508750 -6.782699 0.000000
vt 6.508750 -7.347923 0.000000
vt -6.508750 -7.347923 0.000000
vt 6.508750 -7.913148 0.000000
vt -6.508750 -7.913148 0.000000
vt 6.508750 -8.478373 0.000000
vt -6.508750 -8.478373 0.000000
vt 6.508750 8.478373 0.000000
vt -6.508750 8.478373 0.000000
vt 6.508750 7.913148 0.000000
vt -6.508750 7.913148 0.000000
vt 6.508750 7.347923 0.000000
vt -6.508750 7.347923 0.000000
vt 6.508750 6.782699 0.000000
vt -6.508750 6.782699 0.000000
vt 6.508750 6.217474 0.000000
vt -6.508750 6.217474 0.000000
vt 6.508750 5.652249 0.000000
vt -6.508750 5.652249 0.000000
vt 6.508750 5.087024 0.000000
vt -6.508750 5.087024 0.000000
vt 6.508750 4.521799 0.000000
vt -6.508750 4.521799 0.000000
vt 6.508750 3.956574 0.000000
vt -6.508750 3.956574 0.000000
vt 6.508750 3.391349 0.000000
vt -6.508750 3.391349 0.000000
vt 6.508750 2.826124 0.000000
vt -6.508750 2.826124 0.000000
vt 6.508750 2.260900 0.000000
vt -6.508750 2.260900 0.000000
vt 6.508750 1.695675 0.000000
vt -6.508750 1.695675 0.000000
vt 6.508750 1.130450 0.000000
vt -6.508750 1.130450 0.000000
vt -2.639776 -0.561102 0.000000
vt 2.639776 -0.561102 0.000000
vt -2.698750 0.000000 0.000000
vt 2.698750 -0.000000 0.000000
vt -2.639776 0.561102 0.000000
vt 2.639776 0.561102 0.000000
vt -2.465431 1.097681 0.000000
vt 2.465431 1.097681 0.000000
vt -2.183335 1.586285 0.000000
vt 2.183335 1.586285 0.000000
vt -1.805816 2.005562 0.000000
vt 1.805816 2.005562 0.000000
vt -1.349375 2.337186 0.000000
vt 1.349375 2.337186 0.000000
vt -0.833960 2.566664 0.000000
vt 0.833960 2.566664 0.000000
vt -0.282096 2.683966 0.000000
vt 0.282096 2.683966 0.000000
vt 2.465431 -1.097681 0.000000
vt -2.465431 -1.097681 0.000000
vt 2.183335 -1.586285 0.000000
vt -2.183335 -1.586285 0.000000
vt 1.805816 -2.005562 0.000000
vt -1.805816 -2.005562 0.000000
vt 1.349375 -2.337186 0.000000
vt -1.349375 -2.337186 0.000000
vt 0.833960 -2.566664 0.000000
vt -0.833960 -2.566664 0.000000
vt 0.282096 -2.683966 0.000000
vt -0.282096 -2.683966 0.000000
vt 2.639776 0.561102 0.000000
vt -2.639776 0.561102 0.000000
vt 2.698750 0.000000 0.000000
vt -2.698750 0.000000 0.000000
vt 2.639776 -0.561102 0.000000
vt -2.639776 -0.561102 0.000000
vt 2.465431 -1.097681 0.000000
vt -2.465431 -1.097681 0.000000
vt 2.183335 -1.586285 0.000000
vt -2.183335 -1.586285 0.000000
vt 1.805816 -2.005562 0.000000
vt -1.805816 -2.005562 0.000000
vt 1.349375 -2.337186 0.000000
vt -1.349375 -2.337186 0.000000
vt 0.833960 -2.566664 0.000000
vt -0.833960 -2.566664 0.000000
vt 0.282096 -2.683966 0.000000
vt -0.282096 -2.683966 0.000000
vt -2.465431 1.097681 0.000000
vt 2.465431 1.097681 0.000000
vt -2.183335 1.586285 0.000000
vt 2.183335 1.586285 0.000000
vt -1.805816 2.005562 0.000000
vt 1.805816 2.005562 0.000000
vt -1.349375 2.337186 0.000000
vt 1.349375 2.337186 0.000000
vt -0.833960 2.566664 0.000000
vt 0.833960 2.566664 0.000000
vt -0.282096 2.683966 0.000000
vt 0.282096 2.683966 0.000000
vn 97.814760 20.791169 0.000000
vn 97.814760 20.791169 0.000000
vn 100.000000 0.000000 0.000000
vn 100.000000 0.000000 0.000000
vn 97.814760 -20.791169 0.000000
vn 97.814760 -20.791169 0.000000
vn 91.354546 -40.673664 0.000000
vn 91.354546 -40.673664 0.000000
vn 80.901699 -58.778525 0.000000
vn 80.901699 -58.778525 0.000000
vn 66.913061 -74.314483 0.000000
vn 66.913061 -74.314483 0.000000
vn 50.000000 -86.602540 0.000000
vn 50.000000 -86.602540 0.000000
vn 30.901699 -95.105652 0.000000
vn 30.901699 -95.105652 0.000000
vn 10.452846 -99.452190 0.000000
vn 10.452846 -99.452190 0.000000
vn -10.452846 -99.452190 0.000000
vn -10.452846 -99.452190 0.000000
vn -30.901699 -95.105652 0.000000
vn -30.901699 -95.105652 0.000000
vn -50.000000 -86.602540 0.000000
vn -50.000000 -86.602540 0.000000
vn -66.913061 -74.314483 0.000000
vn -66.913061 -74.314483 0.000000
vn -80.901699 -58.778525 0.000000
vn -80.901699 -58.778525 0.000000
vn -91.354546 -40.673664 0.000000
vn -91.354546 -40.673664 0.000000
vn -97.814760 -20.791169 0.000000
vn -97.814760 -20.791169 0.000000
vn -100.000000 -0.000000 0.000000
vn -100.000000 -0.000000 0.000000
vn -97.814760 20.791169 -0.000000
vn -97.814760 20.791169 -0.000000
vn -91.354546 40.673664 -0.000000
vn -91.354546 40.673664 -0.000000
vn -80.901699 58.778525 -0.000000
vn -80.901699 58.778525 -0.000000
vn -66.913061 74.314483 -0.000000
vn -66.913061 74.314483 -0.000000
vn -50.000000 86.602540 -0.000000
vn -50.000000 86.602540 -0.000000
vn -30.901699 95.105652 -0.000000
vn -30.901699 95.105652 -0.000000
vn -10.452846 99.452190 -0.000000
vn -10.452846 99.452190 -0.000000
vn 10.452846 99.452190 0.000000
vn 10.452846 99.452190 0.000000
vn 30.901699 95.105652 0.000000
vn 30.901699 95.105652 0.000000
vn 50.000000 86.602540 0.000000
vn 50.000000 86.602540 0.000000
vn 66.913061 74.314483 0.000000
vn 66.913061 74.314483 0.000000
vn 80.901699 58.778525 0.000000
vn 80.901699 58.778525 0.000000
vn 91.354546 40.673664 0.000000
vn 91.354546 40.673664 0.000000
vn 0.000000 0.000000 -100.000000
vn 0.000000 0.000000 -100.000000
vn 0.000000 0.000000 -100.000000
vn 0.000000 0.000000 -100.000000
vn 0.000000 0.000000 -100.000000
vn 0.000000 0.000000 -100.000000
vn 0.000000 0.000000 -100.000000
vn 0.000000 0.000000 -100.000000
vn 0.000000 0.000000 -100.000000
vn 0.000000 0.000000 -100.000000
vn 0.000000 0.000000 -100.000000
vn 0.000000 0.000000 -100.000000
vn 0.000000 0.000000 -100.000000
vn 0.000000 0.000000 -100.000000
vn 0.000000 0.000000 -100.000000
vn 0.000000 0.000000 -100.000000
vn 0.000000 0.000000 -100.000000
vn 0.000000 0.000000 -100.000000
vn 0.000000 0.000000 -100.000000
vn 0.000000 0.000000 -100.000000
vn 0.000000 0.000000 -100.000000
vn 0.000000 0.000000 -100.000000
vn 0.000000 0.000000 -100.000000
vn 0.000000 0.000000 -100.000000
vn 0.000000 0.000000 -100.000000
vn 0.000000 0.000000 -100.000000
vn 0.000000 0.000000 -100.000000
vn 0.000000 0.000000 -100.000000
vn 0.000000 0.000000 -100.000000
vn 0.000000 0.000000 -100.000000
vn 0.000000 0.000000 100.000000
vn 0.000000 0.000000 100.000000
vn 0.000000 0.000000 100.000000
vn 0.000000 0.000000 100.000000
vn 0.000000 0.000000 100.000000
vn 0.000000 0.000000 100.000000
vn 0.000000 0.000000 100.000000
vn 0.000000 0.000000 100.000000
vn 0.000000 0.000000 100.000000
vn 0.000000 0.000000 100.000000
vn 0.000000 0.000000 100.000000
vn 0.000000 0.000000 100.000000
vn 0.000000 0.000000 100.000000
vn 0.000000 0.000000 100.000000
vn 0.000000 0.000000 100.000000
vn 0.000000 0.000000 100.000000
vn 0.000000 0.000000 100.000000
vn 0.000000 0.000000 100.000000
vn 0.000000 0.000000 100.000000
vn 0.000000 0.000000 100.000000
vn 0.000000 0.000000 100.000000
vn 0.000000 0.000000 100.000000
vn 0.000000 0.000000 100.000000
vn 0.000000 0.000000 100.000000
vn 0.000000 0.000000 100.000000
vn 0.000000 0.000000 100.000000
vn 0.000000 0.000000 100.000000
vn 0.000000 0.000000 100.000000
vn 0.000000 0.000000 100.000000
vn 0.000000 0.000000 100.000000
usemtl Tough_2000_(with_Formlabs_SLA_3D_Printers)
f 2/1/1 60/2/2 1/3/3
f 1/3/3 60/2/2 31/4/4
f 1/3/3 31/4/4 30/5/5
f 30/5/5 31/4/4 32/6/6
f 30/5/5 32/6/6 29/7/7
f 29/7/7 32/6/6 33/8/8
f 29/7/7 33/8/8 28/9/9
f 28/9/9 33/8/8 34/10/10
f 28/9/9 34/10/10 27/11/11
f 27/11/11 34/10/10 35/12/12
f 27/11/11 35/12/12 26/13/13
f 26/13/13 35/12/12 36/14/14
f 26/13/13 36/14/14 25/15/15
f 25/15/15 36/14/14 37/16/16
f 25/15/15 37/16/16 24/17/17
f 24/17/17 37/16/16 38/18/18
f 24/17/17 38/18/18 23/19/19
f 23/19/19 38/18/18 39/20/20
f 23/19/19 39/20/20 22/21/21
f 22/21/21 39/20/20 40/22/22
f 22/21/21 40/22/22 21/23/23
f 21/23/23 40/22/22 41/24/24
f 21/23/23 41/24/24 20/25/25
f 20/25/25 41/24/24 42/26/26
f 20/25/25 42/26/26 19/27/27
f 19/27/27 42/26/26 43/28/28
f 19/27/27 43/28/28 18/29/29
f 18/29/29 43/28/28 44/30/30
f 18/29/29 44/30/30 17/31/31
f 17/31/31 44/30/30 45/32/32
f 17/31/31 45/32/32 16/33/33
f 16/33/33 45/32/32 46/34/34
f 16/35/33 46/36/34 15/37/35
f 15/37/35 46/36/34 47/38/36
f 15/37/35 47/38/36 14/39/37
f 14/39/37 47/38/36 48/40/38
f 14/39/37 48/40/38 13/41/39
f 13/41/39 48/40/38 49/42/40
f 13/41/39 49/42/40 12/43/41
f 12/43/41 49/42/40 50/44/42
f 12/43/41 50/44/42 11/45/43
f 11/45/43 50/44/42 51/46/44
f 11/45/43 51/46/44 10/47/45
f 10/47/45 51/46/44 52/48/46
f 10/47/45 52/48/46 9/49/47
f 9/49/47 52/48/46 53/50/48
f 9/49/47 53/50/48 8/51/49
f 8/51/49 53/50/48 54/52/50
f 8/51/49 54/52/50 7/53/51
f 7/53/51 54/52/50 55/54/52
f 7/53/51 55/54/52 6/55/53
f 6/55/53 55/54/52 56/56/54
f 6/55/53 56/56/54 5/57/55
f 5/57/55 56/56/54 57/58/56
f 5/57/55 57/58/56 4/59/57
f 4/59/57 57/58/56 58/60/58
f 4/59/57 58/60/58 3/61/59
f 3/61/59 58/60/58 59/62/60
f 3/61/59 59/62/60 2/1/1
f 2/1/1 59/62/60 60/2/2
f 30/63/61 17/64/62 1/65/63
f 1/65/63 17/64/62 16/66/64
f 1/65/63 16/66/64 2/67/65
f 2/67/65 16/66/64 15/68/66
f 2/67/65 15/68/66 3/69/67
f 3/69/67 15/68/66 14/70/68
f 3/69/67 14/70/68 4/71/69
f 4/71/69 14/70/68 13/72/70
f 4/71/69 13/72/70 5/73/71
f 5/73/71 13/72/70 12/74/72
f 5/73/71 12/74/72 6/75/73
f 6/75/73 12/74/72 11/76/74
f 6/75/73 11/76/74 7/77/75
f 7/77/75 11/76/74 10/78/76
f 7/77/75 10/78/76 8/79/77
f 8/79/77 10/78/76 9/80/78
f 17/64/62 30/63/61 18/81/79
f 18/81/79 30/63/61 29/82/80
f 18/81/79 29/82/80 19/83/81
f 19/83/81 29/82/80 28/84/82
f 19/83/81 28/84/82 20/85/83
f 20/85/83 28/84/82 27/86/84
f 20/85/83 27/86/84 21/87/85
f 21/87/85 27/86/84 26/88/86
f 21/87/85 26/88/86 22/89/87
f 22/89/87 26/88/86 25/90/88
f 22/89/87 25/90/88 23/91/89
f 23/91/89 25/90/88 24/92/90
f 60/93/91 47/94/92 31/95/93
f 31/95/93 47/94/92 46/96/94
f 31/95/93 46/96/94 32/97/95
f 32/97/95 46/96/94 45/98/96
f 32/97/95 45/98/96 33/99/97
f 33/99/97 45/98/96 44/100/98
f 33/99/97 44/100/98 34/101/99
f 34/101/99 44/100/98 43/102/100
f 34/101/99 43/102/100 35/103/101
f 35/103/101 43/102/100 42/104/102
f 35/103/101 42/104/102 36/105/103
f 36/105/103 42/104/102 41/106/104
f 36/105/103 41/106/104 37/107/105
f 37/107/105 41/106/104 40/108/106
f 37/107/105 40/108/106 38/109/107
f 38/109/107 40/108/106 39/110/108
f 47/94/92 60/93/91 48/111/109
f 48/111/109 60/93/91 59/112/110
f 48/111/109 59/112/110 49/113/111
f 49/113/111 59/112/110 58/114/112
f 49/113/111 58/114/112 50/115/113
f 50/115/113 58/114/112 57/116/114
f 50/115/113 57/116/114 51/117/115
f 51/117/115 57/116/114 56/118/116
f 51/117/115 56/118/116 52/119/117
f 52/119/117 56/118/116 55/120/118
f 52/119/117 55/120/118 53/121/119
f 53/121/119 55/120/118 54/122/120
# 60 vertices
# 122 texture params
# 120 normals
# 116 facets

# 1 groups
