# WaveFront *.obj file (generated by Autodesk ATF)

mtllib 5e8a7d37-47ee-4edd-bc59-4254263d27a9.mtl

g Body1

v 0.063550 0.031800 0.000000
v 0.063178 0.036647 0.000000
v 0.062070 0.041380 0.000000
v 0.060253 0.045888 0.000000
v 0.057769 0.050066 0.000000
v 0.054677 0.053816 0.000000
v 0.051048 0.057051 0.000000
v 0.046968 0.059693 0.000000
v 0.042532 0.061681 0.000000
v 0.037845 0.062969 0.000000
v 0.033016 0.063527 0.000000
v 0.028159 0.063341 0.000000
v 0.023387 0.062415 0.000000
v 0.018812 0.060772 0.000000
v 0.014542 0.058450 0.000000
v 0.010676 0.055503 0.000000
v 0.007305 0.052001 0.000000
v 0.004509 0.048025 0.000000
v 0.002352 0.043669 0.000000
v 0.000885 0.039034 0.000000
v 0.000143 0.034230 0.000000
v 0.000143 0.029370 0.000000
v 0.000885 0.024566 0.000000
v 0.002352 0.019931 0.000000
v 0.004509 0.015575 0.000000
v 0.007305 0.011599 0.000000
v 0.010676 0.008097 0.000000
v 0.014542 0.005150 0.000000
v 0.018812 0.002828 0.000000
v 0.023387 0.001185 0.000000
v 0.028159 0.000259 0.000000
v 0.033016 0.000073 0.000000
v 0.037845 0.000631 0.000000
v 0.042532 0.001919 0.000000
v 0.046968 0.003907 0.000000
v 0.051048 0.006549 0.000000
v 0.054677 0.009784 0.000000
v 0.057769 0.013534 0.000000
v 0.060253 0.017712 0.000000
v 0.062070 0.022220 0.000000
v 0.063178 0.026953 0.000000
v 0.063550 0.031800 0.031750
v 0.063178 0.026953 0.031750
v 0.062070 0.022220 0.031750
v 0.060253 0.017712 0.031750
v 0.057769 0.013534 0.031750
v 0.054677 0.009784 0.031750
v 0.051048 0.006549 0.031750
v 0.046968 0.003907 0.031750
v 0.042532 0.001919 0.031750
v 0.037845 0.000631 0.031750
v 0.033016 0.000073 0.031750
v 0.028159 0.000259 0.031750
v 0.023387 0.001185 0.031750
v 0.018812 0.002828 0.031750
v 0.014542 0.005150 0.031750
v 0.010676 0.008097 0.031750
v 0.007305 0.011599 0.031750
v 0.004509 0.015575 0.031750
v 0.002352 0.019931 0.031750
v 0.000885 0.024566 0.031750
v 0.000143 0.029370 0.031750
v 0.000143 0.034230 0.031750
v 0.000885 0.039034 0.031750
v 0.002352 0.043669 0.031750
v 0.004509 0.048025 0.031750
v 0.007305 0.052001 0.031750
v 0.010676 0.055503 0.031750
v 0.014542 0.058450 0.031750
v 0.018812 0.060772 0.031750
v 0.023387 0.062415 0.031750
v 0.028159 0.063341 0.031750
v 0.033016 0.063527 0.031750
v 0.037845 0.062969 0.031750
v 0.042532 0.061681 0.031750
v 0.046968 0.059693 0.031750
v 0.051048 0.057051 0.031750
v 0.054677 0.053816 0.031750
v 0.057769 0.050066 0.031750
v 0.060253 0.045888 0.031750
v 0.062070 0.041380 0.031750
v 0.063178 0.036647 0.031750
vt 1.587500 0.486564 0.000000
vt -1.587500 0.000000 0.000000
vt 1.587500 0.000000 0.000000
vt -1.587500 -0.486564 0.000000
vt 1.587500 -0.486564 0.000000
vt -1.587500 -0.973127 0.000000
vt 1.587500 -0.973127 0.000000
vt -1.587500 -1.459691 0.000000
vt 1.587500 -1.459691 0.000000
vt -1.587500 -1.946255 0.000000
vt 1.587500 -1.946255 0.000000
vt -1.587500 -2.432819 0.000000
vt 1.587500 -2.432819 0.000000
vt -1.587500 -2.919382 0.000000
vt 1.587500 -2.919382 0.000000
vt -1.587500 -3.405946 0.000000
vt 1.587500 -3.405946 0.000000
vt -1.587500 -3.892510 0.000000
vt 1.587500 -3.892510 0.000000
vt -1.587500 -4.379074 0.000000
vt 1.587500 -4.379074 0.000000
vt -1.587500 -4.865637 0.000000
vt 1.587500 -4.865637 0.000000
vt -1.587500 -5.352201 0.000000
vt 1.587500 -5.352201 0.000000
vt -1.587500 -5.838765 0.000000
vt 1.587500 -5.838765 0.000000
vt -1.587500 -6.325329 0.000000
vt 1.587500 -6.325329 0.000000
vt -1.587500 -6.811892 0.000000
vt 1.587500 -6.811892 0.000000
vt -1.587500 -7.298456 0.000000
vt 1.587500 -7.298456 0.000000
vt -1.587500 -7.785020 0.000000
vt 1.587500 -7.785020 0.000000
vt -1.587500 -8.271584 0.000000
vt 1.587500 -8.271584 0.000000
vt -1.587500 -8.758147 0.000000
vt 1.587500 -8.758147 0.000000
vt -1.587500 -9.244711 0.000000
vt 1.587500 -9.244711 0.000000
vt -1.587500 -9.731275 0.000000
vt 1.587500 -9.731275 0.000000
vt 1.587500 10.217839 0.000000
vt -1.587500 10.217839 0.000000
vt -1.587500 9.731275 0.000000
vt 1.587500 9.731275 0.000000
vt -1.587500 9.244711 0.000000
vt 1.587500 9.244711 0.000000
vt -1.587500 8.758147 0.000000
vt 1.587500 8.758147 0.000000
vt -1.587500 8.271584 0.000000
vt 1.587500 8.271584 0.000000
vt -1.587500 7.785020 0.000000
vt 1.587500 7.785020 0.000000
vt -1.587500 7.298456 0.000000
vt 1.587500 7.298456 0.000000
vt -1.587500 6.811892 0.000000
vt 1.587500 6.811892 0.000000
vt -1.587500 6.325329 0.000000
vt 1.587500 6.325329 0.000000
vt -1.587500 5.838765 0.000000
vt 1.587500 5.838765 0.000000
vt -1.587500 5.352201 0.000000
vt 1.587500 5.352201 0.000000
vt -1.587500 4.865637 0.000000
vt 1.587500 4.865637 0.000000
vt -1.587500 4.379074 0.000000
vt 1.587500 4.379074 0.000000
vt -1.587500 3.892510 0.000000
vt 1.587500 3.892510 0.000000
vt -1.587500 3.405946 0.000000
vt 1.587500 3.405946 0.000000
vt -1.587500 2.919382 0.000000
vt 1.587500 2.919382 0.000000
vt -1.587500 2.432819 0.000000
vt 1.587500 2.432819 0.000000
vt -1.587500 1.946255 0.000000
vt 1.587500 1.946255 0.000000
vt -1.587500 1.459691 0.000000
vt 1.587500 1.459691 0.000000
vt -1.587500 0.973127 0.000000
vt 1.587500 0.973127 0.000000
vt -1.587500 0.486564 0.000000
vt -3.137790 0.484661 0.000000
vt -3.175000 0.000000 0.000000
vt 2.729134 -1.622484 0.000000
vt -3.137790 -0.484661 0.000000
vt -3.027034 -0.957963 0.000000
vt -2.845326 -1.408810 0.000000
vt -2.596926 -1.826637 0.000000
vt 2.449478 -2.020070 0.000000
vt -2.287656 -2.201648 0.000000
vt 2.112409 -2.370306 0.000000
vt -1.924766 -2.525055 0.000000
vt 1.725827 -2.664985 0.000000
vt -1.516760 -2.789276 0.000000
vt 1.298793 -2.897199 0.000000
vt -1.073204 -2.988120 0.000000
vt 0.841316 -3.061505 0.000000
vt -0.604492 -3.116924 0.000000
vt 0.364120 -3.154052 0.000000
vt -0.121611 -3.172670 0.000000
vt 2.944820 -1.186869 0.000000
vt 0.364120 3.154052 0.000000
vt -0.121611 3.172670 0.000000
vt -0.604492 3.116924 0.000000
vt 3.091483 -0.723435 0.000000
vt 2.944820 1.186869 0.000000
vt 2.729134 1.622484 0.000000
vt 2.449478 2.020070 0.000000
vt 3.091483 0.723435 0.000000
vt 3.165684 -0.243044 0.000000
vt 3.165684 0.243044 0.000000
vt 2.112409 2.370306 0.000000
vt 1.725827 2.664985 0.000000
vt 1.298793 2.897199 0.000000
vt 0.841316 3.061505 0.000000
vt -1.073204 2.988120 0.000000
vt -1.516760 2.789276 0.000000
vt -1.924766 2.525055 0.000000
vt -2.287656 2.201648 0.000000
vt -2.596926 1.826637 0.000000
vt -2.845326 1.408810 0.000000
vt -3.027034 0.957963 0.000000
vt 3.137790 -0.484661 0.000000
vt 3.175000 0.000000 0.000000
vt -2.729134 -1.622484 0.000000
vt 3.137790 0.484661 0.000000
vt 3.027034 0.957963 0.000000
vt 2.845326 1.408810 0.000000
vt 2.596926 1.826637 0.000000
vt 2.287656 2.201648 0.000000
vt 1.924766 2.525055 0.000000
vt 1.516760 2.789276 0.000000
vt 1.073204 2.988120 0.000000
vt 0.604492 3.116924 0.000000
vt 0.121611 3.172670 0.000000
vt -0.364120 3.154052 0.000000
vt -2.944820 -1.186869 0.000000
vt -0.841316 3.061505 0.000000
vt -1.298793 2.897199 0.000000
vt -1.725827 2.664985 0.000000
vt -2.112409 2.370306 0.000000
vt -2.449478 2.020070 0.000000
vt -2.729134 1.622484 0.000000
vt -2.944820 1.186869 0.000000
vt -3.091483 -0.723435 0.000000
vt -3.091483 0.723435 0.000000
vt -3.165684 -0.243044 0.000000
vt -3.165684 0.243044 0.000000
vt -2.449478 -2.020070 0.000000
vt 2.596926 -1.826637 0.000000
vt 2.845326 -1.408810 0.000000
vt 3.027034 -0.957963 0.000000
vt 2.287656 -2.201648 0.000000
vt -2.112409 -2.370306 0.000000
vt 1.924766 -2.525055 0.000000
vt -1.725827 -2.664985 0.000000
vt 1.516760 -2.789276 0.000000
vt -1.298793 -2.897199 0.000000
vt 1.073204 -2.988120 0.000000
vt -0.841316 -3.061505 0.000000
vt 0.604492 -3.116924 0.000000
vt -0.364120 -3.154052 0.000000
vt 0.121611 -3.172670 0.000000
vn 98.828042 15.264928 0.000000
vn 100.000000 0.000000 0.000000
vn 100.000000 0.000000 0.000000
vn 98.828042 -15.264928 0.000000
vn 98.828042 -15.264928 0.000000
vn 95.339639 -30.172060 0.000000
vn 95.339639 -30.172060 0.000000
vn 89.616556 -44.371984 0.000000
vn 89.616556 -44.371984 0.000000
vn 81.792936 -57.531866 0.000000
vn 81.792936 -57.531866 0.000000
vn 72.052159 -69.343250 0.000000
vn 72.052159 -69.343250 0.000000
vn 60.622541 -79.529287 0.000000
vn 60.622541 -79.529287 0.000000
vn 47.771982 -87.851225 0.000000
vn 47.771982 -87.851225 0.000000
vn 33.801688 -94.114005 0.000000
vn 33.801688 -94.114005 0.000000
vn 19.039111 -98.170832 0.000000
vn 19.039111 -98.170832 0.000000
vn 3.830273 -99.926618 0.000000
vn 3.830273 -99.926618 0.000000
vn -11.468343 -99.340209 0.000000
vn -11.468343 -99.340209 0.000000
vn -26.498150 -96.425350 0.000000
vn -26.498150 -96.425350 0.000000
vn -40.906864 -91.250362 0.000000
vn -40.906864 -91.250362 0.000000
vn -54.356755 -83.936543 0.000000
vn -54.356755 -83.936543 0.000000
vn -66.532570 -74.655322 0.000000
vn -66.532570 -74.655322 0.000000
vn -77.148918 -63.624244 0.000000
vn -77.148918 -63.624244 0.000000
vn -85.956961 -51.101868 0.000000
vn -85.956961 -51.101868 0.000000
vn -92.750245 -37.381707 0.000000
vn -92.750245 -37.381707 0.000000
vn -97.369542 -22.785351 0.000000
vn -97.369542 -22.785351 0.000000
vn -99.706580 -7.654925 0.000000
vn -99.706580 -7.654925 0.000000
vn -99.706580 7.654925 -0.000000
vn -99.706580 7.654925 -0.000000
vn -97.369542 22.785351 -0.000000
vn -97.369542 22.785351 -0.000000
vn -92.750245 37.381707 -0.000000
vn -92.750245 37.381707 -0.000000
vn -85.956961 51.101868 -0.000000
vn -85.956961 51.101868 -0.000000
vn -77.148918 63.624244 -0.000000
vn -77.148918 63.624244 -0.000000
vn -66.532570 74.655322 -0.000000
vn -66.532570 74.655322 -0.000000
vn -54.356755 83.936543 -0.000000
vn -54.356755 83.936543 -0.000000
vn -40.906864 91.250362 -0.000000
vn -40.906864 91.250362 -0.000000
vn -26.498150 96.425350 -0.000000
vn -26.498150 96.425350 -0.000000
vn -11.468343 99.340209 -0.000000
vn -11.468343 99.340209 -0.000000
vn 3.830273 99.926618 0.000000
vn 3.830273 99.926618 0.000000
vn 19.039111 98.170832 0.000000
vn 19.039111 98.170832 0.000000
vn 33.801688 94.114005 0.000000
vn 33.801688 94.114005 0.000000
vn 47.771982 87.851225 0.000000
vn 47.771982 87.851225 0.000000
vn 60.622541 79.529287 0.000000
vn 60.622541 79.529287 0.000000
vn 72.052159 69.343250 0.000000
vn 72.052159 69.343250 0.000000
vn 81.792936 57.531866 0.000000
vn 81.792936 57.531866 0.000000
vn 89.616556 44.371984 0.000000
vn 89.616556 44.371984 0.000000
vn 95.339639 30.172060 0.000000
vn 95.339639 30.172060 0.000000
vn 98.828042 15.264928 0.000000
vn 0.000000 0.000000 -100.000000
vn 0.000000 0.000000 -100.000000
vn 0.000000 0.000000 -100.000000
vn 0.000000 0.000000 -100.000000
vn 0.000000 0.000000 -100.000000
vn 0.000000 0.000000 -100.000000
vn 0.000000 0.000000 -100.000000
vn 0.000000 0.000000 -100.000000
vn 0.000000 0.000000 -100.000000
vn 0.000000 0.000000 -100.000000
vn 0.000000 0.000000 -100.000000
vn 0.000000 0.000000 -100.000000
vn 0.000000 0.000000 -100.000000
vn 0.000000 0.000000 -100.000000
vn 0.000000 0.000000 -100.000000
vn 0.000000 0.000000 -100.000000
vn 0.000000 0.000000 -100.000000
vn 0.000000 0.000000 -100.000000
vn 0.000000 0.000000 -100.000000
vn 0.000000 0.000000 -100.000000
vn 0.000000 0.000000 -100.000000
vn 0.000000 0.000000 -100.000000
vn 0.000000 0.000000 -100.000000
vn 0.000000 0.000000 -100.000000
vn 0.000000 0.000000 -100.000000
vn 0.000000 0.000000 -100.000000
vn 0.000000 0.000000 -100.000000
vn 0.000000 0.000000 -100.000000
vn 0.000000 0.000000 -100.000000
vn 0.000000 0.000000 -100.000000
vn 0.000000 0.000000 -100.000000
vn 0.000000 0.000000 -100.000000
vn 0.000000 0.000000 -100.000000
vn 0.000000 0.000000 -100.000000
vn 0.000000 0.000000 -100.000000
vn 0.000000 0.000000 -100.000000
vn 0.000000 0.000000 -100.000000
vn 0.000000 0.000000 -100.000000
vn 0.000000 0.000000 -100.000000
vn 0.000000 0.000000 -100.000000
vn 0.000000 0.000000 -100.000000
vn 0.000000 0.000000 100.000000
vn 0.000000 0.000000 100.000000
vn 0.000000 0.000000 100.000000
vn 0.000000 0.000000 100.000000
vn 0.000000 0.000000 100.000000
vn 0.000000 0.000000 100.000000
vn 0.000000 0.000000 100.000000
vn 0.000000 0.000000 100.000000
vn 0.000000 0.000000 100.000000
vn 0.000000 0.000000 100.000000
vn 0.000000 0.000000 100.000000
vn 0.000000 0.000000 100.000000
vn 0.000000 0.000000 100.000000
vn 0.000000 0.000000 100.000000
vn 0.000000 0.000000 100.000000
vn 0.000000 0.000000 100.000000
vn 0.000000 0.000000 100.000000
vn 0.000000 0.000000 100.000000
vn 0.000000 0.000000 100.000000
vn 0.000000 0.000000 100.000000
vn 0.000000 0.000000 100.000000
vn 0.000000 0.000000 100.000000
vn 0.000000 0.000000 100.000000
vn 0.000000 0.000000 100.000000
vn 0.000000 0.000000 100.000000
vn 0.000000 0.000000 100.000000
vn 0.000000 0.000000 100.000000
vn 0.000000 0.000000 100.000000
vn 0.000000 0.000000 100.000000
vn 0.000000 0.000000 100.000000
vn 0.000000 0.000000 100.000000
vn 0.000000 0.000000 100.000000
vn 0.000000 0.000000 100.000000
vn 0.000000 0.000000 100.000000
vn 0.000000 0.000000 100.000000
vn 0.000000 0.000000 100.000000
vn 0.000000 0.000000 100.000000
vn 0.000000 0.000000 100.000000
vn 0.000000 0.000000 100.000000
vn 0.000000 0.000000 100.000000
vn 0.000000 0.000000 100.000000
usemtl Tough_2000_(with_Formlabs_SLA_3D_Printers)
f 2/1/1 42/2/2 1/3/3
f 1/3/3 42/2/2 43/4/4
f 1/3/3 43/4/4 41/5/5
f 41/5/5 43/4/4 44/6/6
f 41/5/5 44/6/6 40/7/7
f 40/7/7 44/6/6 45/8/8
f 40/7/7 45/8/8 39/9/9
f 39/9/9 45/8/8 46/10/10
f 39/9/9 46/10/10 38/11/11
f 38/11/11 46/10/10 47/12/12
f 38/11/11 47/12/12 37/13/13
f 37/13/13 47/12/12 48/14/14
f 37/13/13 48/14/14 36/15/15
f 36/15/15 48/14/14 49/16/16
f 36/15/15 49/16/16 35/17/17
f 35/17/17 49/16/16 50/18/18
f 35/17/17 50/18/18 34/19/19
f 34/19/19 50/18/18 51/20/20
f 34/19/19 51/20/20 33/21/21
f 33/21/21 51/20/20 52/22/22
f 33/21/21 52/22/22 32/23/23
f 32/23/23 52/22/22 53/24/24
f 32/23/23 53/24/24 31/25/25
f 31/25/25 53/24/24 54/26/26
f 31/25/25 54/26/26 30/27/27
f 30/27/27 54/26/26 55/28/28
f 30/27/27 55/28/28 29/29/29
f 29/29/29 55/28/28 56/30/30
f 29/29/29 56/30/30 28/31/31
f 28/31/31 56/30/30 57/32/32
f 28/31/31 57/32/32 27/33/33
f 27/33/33 57/32/32 58/34/34
f 27/33/33 58/34/34 26/35/35
f 26/35/35 58/34/34 59/36/36
f 26/35/35 59/36/36 25/37/37
f 25/37/37 59/36/36 60/38/38
f 25/37/37 60/38/38 24/39/39
f 24/39/39 60/38/38 61/40/40
f 24/39/39 61/40/40 23/41/41
f 23/41/41 61/40/40 62/42/42
f 23/41/41 62/42/42 22/43/43
f 22/44/43 62/45/42 63/46/44
f 22/44/43 63/46/44 21/47/45
f 21/47/45 63/46/44 64/48/46
f 21/47/45 64/48/46 20/49/47
f 20/49/47 64/48/46 65/50/48
f 20/49/47 65/50/48 19/51/49
f 19/51/49 65/50/48 66/52/50
f 19/51/49 66/52/50 18/53/51
f 18/53/51 66/52/50 67/54/52
f 18/53/51 67/54/52 17/55/53
f 17/55/53 67/54/52 68/56/54
f 17/55/53 68/56/54 16/57/55
f 16/57/55 68/56/54 69/58/56
f 16/57/55 69/58/56 15/59/57
f 15/59/57 69/58/56 70/60/58
f 15/59/57 70/60/58 14/61/59
f 14/61/59 70/60/58 71/62/60
f 14/61/59 71/62/60 13/63/61
f 13/63/61 71/62/60 72/64/62
f 13/63/61 72/64/62 12/65/63
f 12/65/63 72/64/62 73/66/64
f 12/65/63 73/66/64 11/67/65
f 11/67/65 73/66/64 74/68/66
f 11/67/65 74/68/66 10/69/67
f 10/69/67 74/68/66 75/70/68
f 10/69/67 75/70/68 9/71/69
f 9/71/69 75/70/68 76/72/70
f 9/71/69 76/72/70 8/73/71
f 8/73/71 76/72/70 77/74/72
f 8/73/71 77/74/72 7/75/73
f 7/75/73 77/74/72 78/76/74
f 7/75/73 78/76/74 6/77/75
f 6/77/75 78/76/74 79/78/76
f 6/77/75 79/78/76 5/79/77
f 5/79/77 79/78/76 80/80/78
f 5/79/77 80/80/78 4/81/79
f 4/81/79 80/80/78 81/82/80
f 4/81/79 81/82/80 3/83/81
f 3/83/81 81/82/80 82/84/82
f 3/83/81 82/84/82 2/1/1
f 2/1/1 82/84/82 42/2/2
f 2/85/83 1/86/84 25/87/85
f 25/87/85 1/86/84 41/88/86
f 25/87/85 41/88/86 40/89/87
f 40/89/87 39/90/88 25/87/85
f 25/87/85 39/90/88 38/91/89
f 25/87/85 38/91/89 26/92/90
f 26/92/90 38/91/89 37/93/91
f 26/92/90 37/93/91 27/94/92
f 27/94/92 37/93/91 36/95/93
f 27/94/92 36/95/93 28/96/94
f 28/96/94 36/95/93 35/97/95
f 28/96/94 35/97/95 29/98/96
f 29/98/96 35/97/95 34/99/97
f 29/98/96 34/99/97 30/100/98
f 30/100/98 34/99/97 33/101/99
f 30/100/98 33/101/99 31/102/100
f 31/102/100 33/101/99 32/103/101
f 24/104/102 12/105/103 25/87/85
f 25/87/85 12/105/103 11/106/104
f 25/87/85 11/106/104 10/107/105
f 23/108/106 19/109/107 24/104/102
f 24/104/102 19/109/107 18/110/108
f 24/104/102 18/110/108 17/111/109
f 19/109/107 23/108/106 20/112/110
f 20/112/110 23/108/106 22/113/111
f 20/112/110 22/113/111 21/114/112
f 17/111/109 16/115/113 24/104/102
f 24/104/102 16/115/113 15/116/114
f 24/104/102 15/116/114 14/117/115
f 14/117/115 13/118/116 24/104/102
f 24/104/102 13/118/116 12/105/103
f 10/107/105 9/119/117 25/87/85
f 25/87/85 9/119/117 8/120/118
f 25/87/85 8/120/118 7/121/119
f 7/121/119 6/122/120 25/87/85
f 25/87/85 6/122/120 5/123/121
f 25/87/85 5/123/121 4/124/122
f 4/124/122 3/125/123 25/87/85
f 25/87/85 3/125/123 2/85/83
f 43/126/124 42/127/125 59/128/126
f 59/128/126 42/127/125 82/129/127
f 59/128/126 82/129/127 81/130/128
f 81/130/128 80/131/129 59/128/126
f 59/128/126 80/131/129 79/132/130
f 59/128/126 79/132/130 78/133/131
f 78/133/131 77/134/132 59/128/126
f 59/128/126 77/134/132 76/135/133
f 59/128/126 76/135/133 75/136/134
f 75/136/134 74/137/135 59/128/126
f 59/128/126 74/137/135 73/138/136
f 59/128/126 73/138/136 72/139/137
f 59/128/126 72/139/137 60/140/138
f 60/140/138 72/139/137 71/141/139
f 60/140/138 71/141/139 70/142/140
f 70/142/140 69/143/141 60/140/138
f 60/140/138 69/143/141 68/144/142
f 60/140/138 68/144/142 67/145/143
f 67/145/143 66/146/144 60/140/138
f 60/140/138 66/146/144 65/147/145
f 60/140/138 65/147/145 61/148/146
f 61/148/146 65/147/145 64/149/147
f 61/148/146 64/149/147 62/150/148
f 62/150/148 64/149/147 63/151/149
f 58/152/150 46/153/151 59/128/126
f 59/128/126 46/153/151 45/154/152
f 59/128/126 45/154/152 44/155/153
f 46/153/151 58/152/150 47/156/154
f 47/156/154 58/152/150 57/157/155
f 47/156/154 57/157/155 48/158/156
f 48/158/156 57/157/155 56/159/157
f 48/158/156 56/159/157 49/160/158
f 49/160/158 56/159/157 55/161/159
f 49/160/158 55/161/159 50/162/160
f 50/162/160 55/161/159 54/163/161
f 50/162/160 54/163/161 51/164/162
f 51/164/162 54/163/161 53/165/163
f 51/164/162 53/165/163 52/166/164
f 44/155/153 43/126/124 59/128/126
# 82 vertices
# 166 texture params
# 164 normals
# 160 facets

# 1 groups
