# WaveFront *.obj file (generated by Autodesk ATF)

mtllib 14bc3e89-3c42-4ee5-bc03-824bd721f81e.mtl

g Body1

v 0.063510 0.031750 0.000000
v 0.063028 0.037263 0.000000
v 0.061595 0.042609 0.000000
v 0.059256 0.047625 0.000000
v 0.056082 0.052159 0.000000
v 0.052169 0.056072 0.000000
v 0.047635 0.059246 0.000000
v 0.042619 0.061585 0.000000
v 0.037273 0.063018 0.000000
v 0.031760 0.063500 0.000000
v 0.026247 0.063018 0.000000
v 0.020901 0.061585 0.000000
v 0.015885 0.059246 0.000000
v 0.011351 0.056072 0.000000
v 0.007438 0.052159 0.000000
v 0.004264 0.047625 0.000000
v 0.001925 0.042609 0.000000
v 0.000492 0.037263 0.000000
v 0.000010 0.031750 0.000000
v 0.000492 0.026237 0.000000
v 0.001925 0.020891 0.000000
v 0.004264 0.015875 0.000000
v 0.007438 0.011341 0.000000
v 0.011351 0.007428 0.000000
v 0.015885 0.004254 0.000000
v 0.020901 0.001915 0.000000
v 0.026247 0.000482 0.000000
v 0.031760 0.000000 0.000000
v 0.037273 0.000482 0.000000
v 0.042619 0.001915 0.000000
v 0.047635 0.004254 0.000000
v 0.052169 0.007428 0.000000
v 0.056082 0.011341 0.000000
v 0.059256 0.015875 0.000000
v 0.061595 0.020891 0.000000
v 0.063028 0.026237 0.000000
v 0.063510 0.031750 0.080962
v 0.063028 0.026237 0.080962
v 0.061595 0.020891 0.080962
v 0.059256 0.015875 0.080962
v 0.056082 0.011341 0.080962
v 0.052169 0.007428 0.080962
v 0.047635 0.004254 0.080962
v 0.042619 0.001915 0.080962
v 0.037273 0.000482 0.080962
v 0.031760 0.000000 0.080962
v 0.026247 0.000482 0.080962
v 0.020901 0.001915 0.080962
v 0.015885 0.004254 0.080962
v 0.011351 0.007428 0.080962
v 0.007438 0.011341 0.080962
v 0.004264 0.015875 0.080962
v 0.001925 0.020891 0.080962
v 0.000492 0.026237 0.080962
v 0.000010 0.031750 0.080962
v 0.000492 0.037263 0.080962
v 0.001925 0.042609 0.080962
v 0.004264 0.047625 0.080962
v 0.007438 0.052159 0.080962
v 0.011351 0.056072 0.080962
v 0.015885 0.059246 0.080962
v 0.020901 0.061585 0.080962
v 0.026247 0.063018 0.080962
v 0.031760 0.063500 0.080962
v 0.037273 0.063018 0.080962
v 0.042619 0.061585 0.080962
v 0.047635 0.059246 0.080962
v 0.052169 0.056072 0.080962
v 0.056082 0.052159 0.080962
v 0.059256 0.047625 0.080962
v 0.061595 0.042609 0.080962
v 0.063028 0.037263 0.080962
vt 4.048125 0.554142 0.000000
vt -4.048125 0.554142 0.000000
vt 4.048125 0.000000 0.000000
vt -4.048125 0.000000 0.000000
vt 4.048125 -0.554142 0.000000
vt -4.048125 -0.554142 0.000000
vt 4.048125 -1.108284 0.000000
vt -4.048125 -1.108284 0.000000
vt 4.048125 -1.662426 0.000000
vt -4.048125 -1.662426 0.000000
vt 4.048125 -2.216568 0.000000
vt -4.048125 -2.216568 0.000000
vt 4.048125 -2.770710 0.000000
vt -4.048125 -2.770710 0.000000
vt 4.048125 -3.324852 0.000000
vt -4.048125 -3.324852 0.000000
vt 4.048125 -3.878994 0.000000
vt -4.048125 -3.878994 0.000000
vt 4.048125 -4.433136 0.000000
vt -4.048125 -4.433136 0.000000
vt 4.048125 -4.987278 0.000000
vt -4.048125 -4.987278 0.000000
vt 4.048125 -5.541420 0.000000
vt -4.048125 -5.541420 0.000000
vt 4.048125 -6.095562 0.000000
vt -4.048125 -6.095562 0.000000
vt 4.048125 -6.649704 0.000000
vt -4.048125 -6.649704 0.000000
vt 4.048125 -7.203846 0.000000
vt -4.048125 -7.203846 0.000000
vt 4.048125 -7.757989 0.000000
vt -4.048125 -7.757989 0.000000
vt 4.048125 -8.312131 0.000000
vt -4.048125 -8.312131 0.000000
vt 4.048125 -8.866273 0.000000
vt -4.048125 -8.866273 0.000000
vt 4.048125 -9.420415 0.000000
vt -4.048125 -9.420415 0.000000
vt 4.048125 -9.974557 0.000000
vt -4.048125 -9.974557 0.000000
vt 4.048125 9.974557 0.000000
vt -4.048125 9.974557 0.000000
vt 4.048125 9.420415 0.000000
vt -4.048125 9.420415 0.000000
vt 4.048125 8.866273 0.000000
vt -4.048125 8.866273 0.000000
vt 4.048125 8.312131 0.000000
vt -4.048125 8.312131 0.000000
vt 4.048125 7.757989 0.000000
vt -4.048125 7.757989 0.000000
vt 4.048125 7.203846 0.000000
vt -4.048125 7.203846 0.000000
vt 4.048125 6.649704 0.000000
vt -4.048125 6.649704 0.000000
vt 4.048125 6.095562 0.000000
vt -4.048125 6.095562 0.000000
vt 4.048125 5.541420 0.000000
vt -4.048125 5.541420 0.000000
vt 4.048125 4.987278 0.000000
vt -4.048125 4.987278 0.000000
vt 4.048125 4.433136 0.000000
vt -4.048125 4.433136 0.000000
vt 4.048125 3.878994 0.000000
vt -4.048125 3.878994 0.000000
vt 4.048125 3.324852 0.000000
vt -4.048125 3.324852 0.000000
vt 4.048125 2.770710 0.000000
vt -4.048125 2.770710 0.000000
vt 4.048125 2.216568 0.000000
vt -4.048125 2.216568 0.000000
vt 4.048125 1.662426 0.000000
vt -4.048125 1.662426 0.000000
vt 4.048125 1.108284 0.000000
vt -4.048125 1.108284 0.000000
vt -3.126765 -0.551333 0.000000
vt 3.126765 -0.551333 0.000000
vt -3.175000 0.000000 0.000000
vt 3.175000 -0.000000 0.000000
vt -3.126765 0.551333 0.000000
vt 3.126765 0.551333 0.000000
vt -2.983524 1.085914 0.000000
vt 2.983524 1.085914 0.000000
vt -2.749631 1.587500 0.000000
vt 2.749631 1.587500 0.000000
vt -2.432191 2.040851 0.000000
vt 2.432191 2.040851 0.000000
vt -2.040851 2.432191 0.000000
vt 2.040851 2.432191 0.000000
vt -1.587500 2.749631 0.000000
vt 1.587500 2.749631 0.000000
vt -1.085914 2.983524 0.000000
vt 1.085914 2.983524 0.000000
vt -0.551333 3.126765 0.000000
vt 0.551333 3.126765 0.000000
vt 0.000000 3.175000 0.000000
vt 2.983524 -1.085914 0.000000
vt -2.983524 -1.085914 0.000000
vt 2.749631 -1.587500 0.000000
vt -2.749631 -1.587500 0.000000
vt 2.432191 -2.040851 0.000000
vt -2.432191 -2.040851 0.000000
vt 2.040851 -2.432191 0.000000
vt -2.040851 -2.432191 0.000000
vt 1.587500 -2.749631 0.000000
vt -1.587500 -2.749631 0.000000
vt 1.085914 -2.983524 0.000000
vt -1.085914 -2.983524 0.000000
vt 0.551333 -3.126765 0.000000
vt -0.551333 -3.126765 0.000000
vt 0.000000 -3.175000 0.000000
vt 3.126765 0.551333 0.000000
vt -3.126765 0.551333 0.000000
vt 3.175000 0.000000 0.000000
vt -3.175000 0.000000 0.000000
vt 3.126765 -0.551333 0.000000
vt -3.126765 -0.551333 0.000000
vt 2.983524 -1.085914 0.000000
vt -2.983524 -1.085914 0.000000
vt 2.749631 -1.587500 0.000000
vt -2.749631 -1.587500 0.000000
vt 2.432191 -2.040851 0.000000
vt -2.432191 -2.040851 0.000000
vt 2.040851 -2.432191 0.000000
vt -2.040851 -2.432191 0.000000
vt 1.587500 -2.749631 0.000000
vt -1.587500 -2.749631 0.000000
vt 1.085914 -2.983524 0.000000
vt -1.085914 -2.983524 0.000000
vt 0.551333 -3.126765 0.000000
vt -0.551333 -3.126765 0.000000
vt -0.000000 -3.175000 0.000000
vt -2.983524 1.085914 0.000000
vt 2.983524 1.085914 0.000000
vt -2.749631 1.587500 0.000000
vt 2.749631 1.587500 0.000000
vt -2.432191 2.040851 0.000000
vt 2.432191 2.040851 0.000000
vt -2.040851 2.432191 0.000000
vt 2.040851 2.432191 0.000000
vt -1.587500 2.749631 0.000000
vt 1.587500 2.749631 0.000000
vt -1.085914 2.983524 0.000000
vt 1.085914 2.983524 0.000000
vt -0.551333 3.126765 0.000000
vt 0.551333 3.126765 0.000000
vt 0.000000 3.175000 0.000000
vn 98.480775 17.364818 0.000000
vn 98.480775 17.364818 0.000000
vn 100.000000 0.000000 0.000000
vn 100.000000 0.000000 0.000000
vn 98.480775 -17.364818 0.000000
vn 98.480775 -17.364818 0.000000
vn 93.969262 -34.202014 0.000000
vn 93.969262 -34.202014 0.000000
vn 86.602540 -50.000000 0.000000
vn 86.602540 -50.000000 0.000000
vn 76.604444 -64.278761 0.000000
vn 76.604444 -64.278761 0.000000
vn 64.278761 -76.604444 0.000000
vn 64.278761 -76.604444 0.000000
vn 50.000000 -86.602540 0.000000
vn 50.000000 -86.602540 0.000000
vn 34.202014 -93.969262 0.000000
vn 34.202014 -93.969262 0.000000
vn 17.364818 -98.480775 0.000000
vn 17.364818 -98.480775 0.000000
vn 0.000000 -100.000000 0.000000
vn -0.000000 -100.000000 0.000000
vn -17.364818 -98.480775 0.000000
vn -17.364818 -98.480775 0.000000
vn -34.202014 -93.969262 0.000000
vn -34.202014 -93.969262 0.000000
vn -50.000000 -86.602540 0.000000
vn -50.000000 -86.602540 0.000000
vn -64.278761 -76.604444 0.000000
vn -64.278761 -76.604444 0.000000
vn -76.604444 -64.278761 0.000000
vn -76.604444 -64.278761 0.000000
vn -86.602540 -50.000000 0.000000
vn -86.602540 -50.000000 0.000000
vn -93.969262 -34.202014 0.000000
vn -93.969262 -34.202014 0.000000
vn -98.480775 -17.364818 0.000000
vn -98.480775 -17.364818 0.000000
vn -100.000000 -0.000000 0.000000
vn -100.000000 -0.000000 0.000000
vn -98.480775 17.364818 -0.000000
vn -98.480775 17.364818 -0.000000
vn -93.969262 34.202014 -0.000000
vn -93.969262 34.202014 -0.000000
vn -86.602540 50.000000 -0.000000
vn -86.602540 50.000000 -0.000000
vn -76.604444 64.278761 -0.000000
vn -76.604444 64.278761 -0.000000
vn -64.278761 76.604444 -0.000000
vn -64.278761 76.604444 -0.000000
vn -50.000000 86.602540 -0.000000
vn -50.000000 86.602540 -0.000000
vn -34.202014 93.969262 -0.000000
vn -34.202014 93.969262 -0.000000
vn -17.364818 98.480775 -0.000000
vn -17.364818 98.480775 -0.000000
vn -0.000000 100.000000 -0.000000
vn 0.000000 100.000000 0.000000
vn 17.364818 98.480775 0.000000
vn 17.364818 98.480775 0.000000
vn 34.202014 93.969262 0.000000
vn 34.202014 93.969262 0.000000
vn 50.000000 86.602540 0.000000
vn 50.000000 86.602540 0.000000
vn 64.278761 76.604444 0.000000
vn 64.278761 76.604444 0.000000
vn 76.604444 64.278761 0.000000
vn 76.604444 64.278761 0.000000
vn 86.602540 50.000000 0.000000
vn 86.602540 50.000000 0.000000
vn 93.969262 34.202014 0.000000
vn 93.969262 34.202014 0.000000
vn 0.000000 0.000000 -100.000000
vn 0.000000 0.000000 -100.000000
vn 0.000000 0.000000 -100.000000
vn 0.000000 0.000000 -100.000000
vn 0.000000 0.000000 -100.000000
vn 0.000000 0.000000 -100.000000
vn 0.000000 0.000000 -100.000000
vn 0.000000 0.000000 -100.000000
vn 0.000000 0.000000 -100.000000
vn 0.000000 0.000000 -100.000000
vn 0.000000 0.000000 -100.000000
vn 0.000000 0.000000 -100.000000
vn 0.000000 0.000000 -100.000000
vn 0.000000 0.000000 -100.000000
vn 0.000000 0.000000 -100.000000
vn 0.000000 0.000000 -100.000000
vn 0.000000 0.000000 -100.000000
vn 0.000000 0.000000 -100.000000
vn 0.000000 0.000000 -100.000000
vn 0.000000 0.000000 -100.000000
vn 0.000000 0.000000 -100.000000
vn 0.000000 0.000000 -100.000000
vn 0.000000 0.000000 -100.000000
vn 0.000000 0.000000 -100.000000
vn 0.000000 0.000000 -100.000000
vn 0.000000 0.000000 -100.000000
vn 0.000000 0.000000 -100.000000
vn 0.000000 0.000000 -100.000000
vn 0.000000 0.000000 -100.000000
vn 0.000000 0.000000 -100.000000
vn 0.000000 0.000000 -100.000000
vn 0.000000 0.000000 -100.000000
vn 0.000000 0.000000 -100.000000
vn 0.000000 0.000000 -100.000000
vn 0.000000 0.000000 -100.000000
vn 0.000000 0.000000 -100.000000
vn 0.000000 0.000000 100.000000
vn 0.000000 0.000000 100.000000
vn 0.000000 0.000000 100.000000
vn 0.000000 0.000000 100.000000
vn 0.000000 0.000000 100.000000
vn 0.000000 0.000000 100.000000
vn 0.000000 0.000000 100.000000
vn 0.000000 0.000000 100.000000
vn 0.000000 0.000000 100.000000
vn 0.000000 0.000000 100.000000
vn 0.000000 0.000000 100.000000
vn 0.000000 0.000000 100.000000
vn 0.000000 0.000000 100.000000
vn 0.000000 0.000000 100.000000
vn 0.000000 0.000000 100.000000
vn 0.000000 0.000000 100.000000
vn 0.000000 0.000000 100.000000
vn 0.000000 0.000000 100.000000
vn 0.000000 0.000000 100.000000
vn 0.000000 0.000000 100.000000
vn 0.000000 0.000000 100.000000
vn 0.000000 0.000000 100.000000
vn 0.000000 0.000000 100.000000
vn 0.000000 0.000000 100.000000
vn 0.000000 0.000000 100.000000
vn 0.000000 0.000000 100.000000
vn 0.000000 0.000000 100.000000
vn 0.000000 0.000000 100.000000
vn 0.000000 0.000000 100.000000
vn 0.000000 0.000000 100.000000
vn 0.000000 0.000000 100.000000
vn 0.000000 0.000000 100.000000
vn 0.000000 0.000000 100.000000
vn 0.000000 0.000000 100.000000
vn 0.000000 0.000000 100.000000
vn 0.000000 0.000000 100.000000
usemtl Tough_2000_(with_Formlabs_SLA_3D_Printers)
f 2/1/1 72/2/2 1/3/3
f 1/3/3 72/2/2 37/4/4
f 1/3/3 37/4/4 36/5/5
f 36/5/5 37/4/4 38/6/6
f 36/5/5 38/6/6 35/7/7
f 35/7/7 38/6/6 39/8/8
f 35/7/7 39/8/8 34/9/9
f 34/9/9 39/8/8 40/10/10
f 34/9/9 40/10/10 33/11/11
f 33/11/11 40/10/10 41/12/12
f 33/11/11 41/12/12 32/13/13
f 32/13/13 41/12/12 42/14/14
f 32/13/13 42/14/14 31/15/15
f 31/15/15 42/14/14 43/16/16
f 31/15/15 43/16/16 30/17/17
f 30/17/17 43/16/16 44/18/18
f 30/17/17 44/18/18 29/19/19
f 29/19/19 44/18/18 45/20/20
f 29/19/19 45/20/20 28/21/21
f 28/21/21 45/20/20 46/22/22
f 28/21/21 46/22/22 27/23/23
f 27/23/23 46/22/22 47/24/24
f 27/23/23 47/24/24 26/25/25
f 26/25/25 47/24/24 48/26/26
f 26/25/25 48/26/26 25/27/27
f 25/27/27 48/26/26 49/28/28
f 25/27/27 49/28/28 24/29/29
f 24/29/29 49/28/28 50/30/30
f 24/29/29 50/30/30 23/31/31
f 23/31/31 50/30/30 51/32/32
f 23/31/31 51/32/32 22/33/33
f 22/33/33 51/32/32 52/34/34
f 22/33/33 52/34/34 21/35/35
f 21/35/35 52/34/34 53/36/36
f 21/35/35 53/36/36 20/37/37
f 20/37/37 53/36/36 54/38/38
f 20/37/37 54/38/38 19/39/39
f 19/39/39 54/38/38 55/40/40
f 19/41/39 55/42/40 18/43/41
f 18/43/41 55/42/40 56/44/42
f 18/43/41 56/44/42 17/45/43
f 17/45/43 56/44/42 57/46/44
f 17/45/43 57/46/44 16/47/45
f 16/47/45 57/46/44 58/48/46
f 16/47/45 58/48/46 15/49/47
f 15/49/47 58/48/46 59/50/48
f 15/49/47 59/50/48 14/51/49
f 14/51/49 59/50/48 60/52/50
f 14/51/49 60/52/50 13/53/51
f 13/53/51 60/52/50 61/54/52
f 13/53/51 61/54/52 12/55/53
f 12/55/53 61/54/52 62/56/54
f 12/55/53 62/56/54 11/57/55
f 11/57/55 62/56/54 63/58/56
f 11/57/55 63/58/56 10/59/57
f 10/59/57 63/58/56 64/60/58
f 10/59/57 64/60/58 9/61/59
f 9/61/59 64/60/58 65/62/60
f 9/61/59 65/62/60 8/63/61
f 8/63/61 65/62/60 66/64/62
f 8/63/61 66/64/62 7/65/63
f 7/65/63 66/64/62 67/66/64
f 7/65/63 67/66/64 6/67/65
f 6/67/65 67/66/64 68/68/66
f 6/67/65 68/68/66 5/69/67
f 5/69/67 68/68/66 69/70/68
f 5/69/67 69/70/68 4/71/69
f 4/71/69 69/70/68 70/72/70
f 4/71/69 70/72/70 3/73/71
f 3/73/71 70/72/70 71/74/72
f 3/73/71 71/74/72 2/1/1
f 2/1/1 71/74/72 72/2/2
f 36/75/73 20/76/74 1/77/75
f 1/77/75 20/76/74 19/78/76
f 1/77/75 19/78/76 2/79/77
f 2/79/77 19/78/76 18/80/78
f 2/79/77 18/80/78 3/81/79
f 3/81/79 18/80/78 17/82/80
f 3/81/79 17/82/80 4/83/81
f 4/83/81 17/82/80 16/84/82
f 4/83/81 16/84/82 5/85/83
f 5/85/83 16/84/82 15/86/84
f 5/85/83 15/86/84 6/87/85
f 6/87/85 15/86/84 14/88/86
f 6/87/85 14/88/86 7/89/87
f 7/89/87 14/88/86 13/90/88
f 7/89/87 13/90/88 8/91/89
f 8/91/89 13/90/88 12/92/90
f 8/91/89 12/92/90 9/93/91
f 9/93/91 12/92/90 11/94/92
f 9/93/91 11/94/92 10/95/93
f 20/76/74 36/75/73 21/96/94
f 21/96/94 36/75/73 35/97/95
f 21/96/94 35/97/95 22/98/96
f 22/98/96 35/97/95 34/99/97
f 22/98/96 34/99/97 23/100/98
f 23/100/98 34/99/97 33/101/99
f 23/100/98 33/101/99 24/102/100
f 24/102/100 33/101/99 32/103/101
f 24/102/100 32/103/101 25/104/102
f 25/104/102 32/103/101 31/105/103
f 25/104/102 31/105/103 26/106/104
f 26/106/104 31/105/103 30/107/105
f 26/106/104 30/107/105 27/108/106
f 27/108/106 30/107/105 29/109/107
f 27/108/106 29/109/107 28/110/108
f 72/111/109 56/112/110 37/113/111
f 37/113/111 56/112/110 55/114/112
f 37/113/111 55/114/112 38/115/113
f 38/115/113 55/114/112 54/116/114
f 38/115/113 54/116/114 39/117/115
f 39/117/115 54/116/114 53/118/116
f 39/117/115 53/118/116 40/119/117
f 40/119/117 53/118/116 52/120/118
f 40/119/117 52/120/118 41/121/119
f 41/121/119 52/120/118 51/122/120
f 41/121/119 51/122/120 42/123/121
f 42/123/121 51/122/120 50/124/122
f 42/123/121 50/124/122 43/125/123
f 43/125/123 50/124/122 49/126/124
f 43/125/123 49/126/124 44/127/125
f 44/127/125 49/126/124 48/128/126
f 44/127/125 48/128/126 45/129/127
f 45/129/127 48/128/126 47/130/128
f 45/129/127 47/130/128 46/131/129
f 56/112/110 72/111/109 57/132/130
f 57/132/130 72/111/109 71/133/131
f 57/132/130 71/133/131 58/134/132
f 58/134/132 71/133/131 70/135/133
f 58/134/132 70/135/133 59/136/134
f 59/136/134 70/135/133 69/137/135
f 59/136/134 69/137/135 60/138/136
f 60/138/136 69/137/135 68/139/137
f 60/138/136 68/139/137 61/140/138
f 61/140/138 68/139/137 67/141/139
f 61/140/138 67/141/139 62/142/140
f 62/142/140 67/141/139 66/143/141
f 62/142/140 66/143/141 63/144/142
f 63/144/142 66/143/141 65/145/143
f 63/144/142 65/145/143 64/146/144
# 72 vertices
# 146 texture params
# 144 normals
# 140 facets

# 1 groups
